<?xml version="1.0" encoding="UTF-8" standalone="no"?>
<svg width="1440px" height="270px" viewBox="0 0 1440 270" version="1.1" xmlns="http://www.w3.org/2000/svg" xmlns:xlink="http://www.w3.org/1999/xlink" xmlns:sketch="http://www.bohemiancoding.com/sketch/ns">
    <!-- Generator: Sketch 3.0.4 (8053) - http://www.bohemiancoding.com/sketch -->
    <title>Desktop HD</title>
    <desc>Created with Sketch.</desc>
    <defs></defs>
    <g id="Welcome" stroke="none" stroke-width="1" fill="none" fill-rule="evenodd" sketch:type="MSPage">
        <g id="Desktop-HD" sketch:type="MSArtboardGroup" transform="translate(0.000000, -754.000000)">
            <g id="Moon" sketch:type="MSLayerGroup" transform="translate(-21.000000, 749.000000)">
                <g fill="#EEEFF7" sketch:type="MSShapeGroup">
                    <path d="M116,31 C116,31 157.035386,25.1983259 170.086781,21.9375845 C183.138175,18.6768432 194.308369,11.435552 194.308369,11.435552 C194.308369,11.435552 217.825802,10 228.951644,10 C240.077487,10 261.063425,11.435552 261.063425,11.435552 C261.063425,11.435552 264.19343,14.8785911 270.037241,17.3770138 C275.881053,19.8754366 318,21.9375846 318,21.9375846 L116,31 Z" id="BG-Crater-3"></path>
                    <path d="M640.020895,21.843067 C640.020895,21.843067 673.336753,17.1464737 683.932935,14.5068259 C694.529117,11.8671782 703.597987,6.00518055 703.597987,6.00518055 C703.597987,6.00518055 722.691348,4.84306702 731.72421,4.84306702 C740.757073,4.84306702 757.795161,6.00518055 757.795161,6.00518055 C757.795161,6.00518055 760.336353,8.79240263 765.080834,10.8149353 C769.825315,12.8374681 804.020895,14.506826 804.020895,14.506826 L640.020895,21.843067 Z" id="BG-Crater-2" transform="translate(721.635911, 13.471102) scale(-1, 1) rotate(2.000000) translate(-721.635911, -13.471102) "></path>
                    <path d="M1071.42367,29.7479464 C1071.42367,29.7479464 1124.24149,23.3937318 1141.04032,19.8224437 C1157.83914,16.2511556 1172.21662,8.32021762 1172.21662,8.32021762 C1172.21662,8.32021762 1202.48658,6.74794637 1216.80697,6.74794637 C1231.12736,6.74794637 1258.13897,8.32021762 1258.13897,8.32021762 C1258.13897,8.32021762 1262.16769,12.0911651 1269.68942,14.8275329 C1277.21116,17.5639007 1331.42367,19.8224438 1331.42367,19.8224438 L1071.42367,29.7479464 Z" id="BG-Crater-1" transform="translate(1200.660535, 18.268610) rotate(3.000000) translate(-1200.660535, -18.268610) "></path>
                    <path d="M30.120677,34.6499509 C30.120677,34.6499509 247.276716,16 748.231982,16 C1249.18725,16 1478,34.6499509 1478,34.6499509 L1478,275 L0,275 L3.301762e-14,34.3261809 L30.120677,34.6499509 Z"></path>
                </g>
                <g id="Crater-1" transform="translate(266.000000, 111.000000)" sketch:type="MSShapeGroup">
                    <path d="M41.9135459,10.1135624 C41.9135459,10.1135624 36.3666914,21.3333593 32.2949674,25.758056 C28.2232434,30.1827526 17.4832017,36.6617425 17.4832017,36.6617425 L-1.13686838e-13,47.1942325 C-1.13686838e-13,47.1942325 18.8758587,62.9254516 34.6441405,66.7218826 C50.4124224,70.5183136 94.609691,69.9728185 94.609691,69.9728185 C94.609691,69.9728185 137.82755,67.3315037 154.059269,62.7844873 C170.290987,58.2374709 192,42.6907201 192,42.6907201 C192,42.6907201 168.300177,38.5643367 160.342514,35.5023889 C152.384852,32.4404412 144.254024,24.3190337 144.254024,24.3190337 C144.254024,24.3190337 142.903044,18.0273371 142.015794,15.6408315 C141.128544,13.2543259 138.930523,10 138.930523,10 L41.9135459,10.1135624 Z" id="Crater-base" fill="#CFD0D7"></path>
                    <path d="M41.7290344,10 C41.7290344,10 36.2065982,21.2410729 32.1527987,25.6741601 C28.0989992,30.1072474 17.4062373,36.5985233 17.4062373,36.5985233 L-3.55271368e-14,47.150986 C-3.55271368e-14,47.150986 18.7927635,62.9120362 34.4916303,66.7156663 C50.1904971,70.5192965 92.2074139,69.972767 92.2074139,69.972767 C92.2074139,69.972767 106.640169,66.430704 112.034823,59.0845659 C116.456471,53.0634145 112.034823,43.4338752 112.034823,40.0000001 C112.034824,32.3766072 94.1932036,24.2324095 94.1932036,24.2324095 L41.7290344,10 Z" id="Crater-base-light" fill="#E4E5EC"></path>
                    <path d="M91,24 C118.061953,24 140,18.627417 140,12 C140,5.372583 118.061953,0 91,0 C63.9380473,0 42,5.372583 42,12 C42,18.627417 63.9380473,24 91,24 Z" id="Crater-top" stroke="#E4E4EB" stroke-width="3" fill="#CECFD6"></path>
                </g>
                <g id="Crater-2" transform="translate(1021.000000, 72.000000)" sketch:type="MSShapeGroup">
                    <path d="M22.484871,6.06245933 C22.484871,6.06245933 19.5092147,12.2333476 17.3249044,14.6669308 C15.1405941,17.100514 9.37900925,20.6639584 9.37900925,20.6639584 L4.97379915e-14,26.4568279 C4.97379915e-14,26.4568279 10.1261117,35.1089984 18.5851379,37.1970354 C27.0441641,39.2850725 50.7541572,38.9850502 50.7541572,38.9850502 C50.7541572,38.9850502 73.938738,37.532327 82.6463785,35.031468 C91.354019,32.530609 103,23.9798961 103,23.9798961 C103,23.9798961 90.2860325,21.7103852 86.017078,20.0263139 C81.7481236,18.3422427 77.3862734,13.8754686 77.3862734,13.8754686 C77.3862734,13.8754686 76.6615289,10.4150354 76.1855561,9.10245731 C75.7095834,7.78987922 74.5304369,6 74.5304369,6 L22.484871,6.06245933 Z" id="Crater-base" fill="#CFD0D7"></path>
                    <path d="M22.694738,6 C22.694738,6 19.6913078,12.1825901 17.4866098,14.6207881 C15.2819118,17.058986 9.4665501,20.6291878 9.4665501,20.6291878 L-3.55271368e-14,26.4330423 C-3.55271368e-14,26.4330423 10.2206258,35.1016199 18.758606,37.1936165 C27.2965862,39.2856131 50.1478918,38.9850218 50.1478918,38.9850218 C50.1478918,38.9850218 57.9972849,37.0368872 60.9312198,32.9965112 C63.3359753,29.684878 60.9312197,24.3886314 60.9312198,22.5000001 C60.93122,18.307134 51.2278827,13.8278252 51.2278827,13.8278252 L22.694738,6 Z" id="Crater-base-light" fill="#E4E5EC"></path>
                    <path d="M48,13 C62.3594035,13 74,10.0898509 74,6.5 C74,2.91014913 62.3594035,0 48,0 C33.6405965,0 22,2.91014913 22,6.5 C22,10.0898509 33.6405965,13 48,13 Z" id="Crater-top" stroke="#E4E4EB" stroke-width="3" fill="#CECFD6"></path>
                </g>
                <g id="Crater-3" transform="translate(836.000000, 146.000000)" sketch:type="MSShapeGroup">
                    <path d="M62.8703189,10.1135624 C62.8703189,10.1135624 54.5500371,21.3333593 48.4424511,25.758056 C42.334865,30.1827526 26.2248026,36.6617425 26.2248026,36.6617425 L5.68434189e-14,47.1942325 C5.68434189e-14,47.1942325 28.3137881,62.9254516 51.9662108,66.7218826 C75.6186336,70.5183136 141.914536,69.9728185 141.914536,69.9728185 C141.914536,69.9728185 206.741326,67.3315037 231.088903,62.7844873 C255.43648,58.2374709 288,42.6907201 288,42.6907201 C288,42.6907201 252.450266,38.5643367 240.513772,35.5023889 C228.577278,32.4404412 216.381036,24.3190337 216.381036,24.3190337 C216.381036,24.3190337 214.354566,18.0273371 213.023691,15.6408315 C211.692816,13.2543259 208.395785,10 208.395785,10 L62.8703189,10.1135624 Z" id="Crater-base" fill="#CFD0D7"></path>
                    <path d="M62.9595958,10 C62.9595958,10 54.6274991,21.2410729 48.5112401,25.6741601 C42.3949812,30.1072474 26.2620422,36.5985233 26.2620422,36.5985233 L-2.84217094e-14,47.150986 C-2.84217094e-14,47.150986 28.3539941,62.9120362 52.0400037,66.7156663 C75.7260132,70.5192965 139.119958,69.972767 139.119958,69.972767 C139.119958,69.972767 160.895694,66.430704 169.034997,59.0845659 C175.706254,53.0634145 169.034997,43.4338752 169.034997,40.0000001 C169.034998,32.3766072 142.116062,24.2324095 142.116062,24.2324095 L62.9595958,10 Z" id="Crater-base-light" fill="#E4E5EC"></path>
                    <path d="M135,24 C175.316787,24 208,18.627417 208,12 C208,5.372583 175.316787,0 135,0 C94.6832133,0 62,5.372583 62,12 C62,18.627417 94.6832133,24 135,24 Z" id="Crater-top" stroke="#E4E4EB" stroke-width="3" fill="#CECFD6"></path>
                </g>
            </g>
        </g>
    </g>
</svg>