<?xml version="1.0" encoding="UTF-8" standalone="no"?>
<svg width="1440px" height="313px" viewBox="0 0 1440 313" version="1.1" xmlns="http://www.w3.org/2000/svg" xmlns:xlink="http://www.w3.org/1999/xlink" xmlns:sketch="http://www.bohemiancoding.com/sketch/ns">
    <!-- Generator: Sketch 3.0.4 (8053) - http://www.bohemiancoding.com/sketch -->
    <title>Moon + Smoke Dark + Smoke Light + Smoke Dark + Smoke Light 2</title>
    <desc>Created with Sketch.</desc>
    <defs></defs>
    <g id="Hero" stroke="none" stroke-width="1" fill="none" fill-rule="evenodd" sketch:type="MSPage">
        <g id="Moon" sketch:type="MSArtboardGroup" transform="translate(0.000000, -711.000000)">
            <g id="Moon-+-Smoke-Dark-+-Smoke-Light-+-Smoke-Dark-+-Smoke-Light-2" sketch:type="MSLayerGroup" transform="translate(0.000000, 711.000000)">
                <g id="Moon" transform="translate(0.000000, 86.000000)" sketch:type="MSShapeGroup">
                    <g fill="#EEEFF7">
                        <path d="M108,38 C108,38 149.035386,32.1983259 162.086781,28.9375845 C175.138175,25.6768432 186.308369,18.435552 186.308369,18.435552 C186.308369,18.435552 209.825802,17 220.951644,17 C232.077487,17 253.063425,18.435552 253.063425,18.435552 C253.063425,18.435552 256.19343,21.8785911 262.037241,24.3770138 C267.881053,26.8754366 310,28.9375846 310,28.9375846 L108,38 Z M783.493387,16.9896441 C783.493387,16.9896441 750.033916,13.4586184 739.352066,11.1903801 C728.670217,8.92214176 719.402291,3.3802141 719.402291,3.3802141 C719.402291,3.3802141 700.280003,2.88515719 691.252644,3.20039954 C682.225284,3.5156419 665.238132,5.27166821 665.238132,5.27166821 C665.238132,5.27166821 662.795761,8.14587871 658.124755,10.3327593 C653.45375,12.51964 619.33726,15.3813895 619.33726,15.3813895 L783.493387,16.9896441 Z M1112.54791,28.7016651 C1112.54791,28.7016651 1165.72514,26.8996707 1182.775,24.7637449 C1189.91828,23.8688688 1207.56155,25.3127357 1218.77544,24.277268 C1225.39808,23.6657466 1229.85878,19.0581705 1234.59699,17.2825829 C1240.98545,14.8885809 1246.59699,15.2825832 1246.59699,15.2825832 L1278.88589,22.289085 C1278.88589,22.289085 1282.92498,30.0454595 1298.51632,33.2234032 C1314.10765,36.401347 1372.43389,41.3567475 1372.43389,41.3567475 L1112.54791,28.7016651 Z" id="BG-Crater-3"></path>
                        <path d="M720,12 C480,12 0,39 0,39 L0,227 L1440,227 L1440,39 C1440,39 960,12 720,12 Z" id="Rectangle-1"></path>
                    </g>
                    <g id="Crater-1" transform="translate(247.000000, 73.000000)">
                        <path d="M40.9135459,10.1135624 C40.9135459,10.1135624 35.3666914,21.3333593 31.2949674,25.758056 C27.2232434,30.1827526 16.4832017,36.6617425 16.4832017,36.6617425 L14,49 C14,49 17.8758587,62.9254516 33.6441405,66.7218826 C49.4124224,70.5183136 93.609691,69.9728185 93.609691,69.9728185 C93.609691,69.9728185 136.82755,67.3315037 153.059269,62.7844873 C169.290987,58.2374709 178,47.1942329 178,47.1942329 C178,47.1942329 167.300177,38.5643367 159.342514,35.5023889 C151.384852,32.4404412 143.254024,24.3190337 143.254024,24.3190337 C143.254024,24.3190337 141.903044,18.0273371 141.015794,15.6408315 C140.128544,13.2543259 137.930523,10 137.930523,10 L40.9135459,10.1135624 Z" id="Crater-base" fill="#CAC9CF"></path>
                        <path d="M40.8691882,10 C40.8691882,10 35.3277486,21.2410729 31.2599994,25.6741601 C27.1922503,30.1072474 16.4626932,36.5985233 16.4626932,36.5985233 C16.4626932,36.5985233 7.76098784,39.5997539 5.01720563,42 C2.27342343,44.4002461 -1.11404344e-16,51 -1.11404344e-16,51 C-1.11404344e-16,51 17.8539907,62.9120362 33.6068793,66.7156663 C49.3597679,70.5192965 91.5212701,69.972767 91.5212701,69.972767 C91.5212701,69.972767 106.00369,66.430704 111.416908,59.0845659 C115.853771,53.0634145 93.5138933,24.2324095 93.5138933,24.2324095 L40.8691882,10 Z" id="Crater-base-light" fill="#E7E8F0"></path>
                        <path d="M90,24 C117.061953,24 139,18.627417 139,12 C139,5.372583 117.061953,0 90,0 C62.9380473,0 41,5.372583 41,12 C41,18.627417 62.9380473,24 90,24 Z" id="Crater-top-fill" fill="#CACACF"></path>
                        <path d="M90,22 C117.061953,22 130,19.5773287 130,16.2636202 C130,12.9499117 117.061953,10.0000001 90,10.0000001 C62.9380473,10.0000001 49,11.6862916 49,15.0000001 C49,18.3137086 62.9380473,22 90,22 Z" id="Crater-top-fill-2" fill="#96969E"></path>
                        <path d="M90,24 C117.061953,24 139,18.627417 139,12 C139,5.372583 117.061953,0 90,0 C62.9380473,0 41,5.372583 41,12 C41,18.627417 62.9380473,24 90,24 Z" id="Crater-top" stroke="#E7E8F0" stroke-width="3"></path>
                    </g>
                    <g id="Crater-2" transform="translate(806.000000, 108.000000)">
                        <path d="M53.467693,12.1400603 C53.467693,12.1400603 44.5090456,25.9778098 37.9328608,31.4349357 C31.3566761,36.8920616 14.0105845,44.8828158 14.0105845,44.8828158 L10,60.1 C10,60.1 16.2598454,77.2747236 41.7269776,81.9569885 C67.1941099,86.6392534 138.576503,85.9664762 138.576503,85.9664762 C138.576503,85.9664762 208.377065,82.7088546 234.592687,77.1008677 C260.808309,71.4928808 257.904493,62.9108538 257.904493,62.9108538 C257.904493,62.9108538 257.59298,47.2293486 244.74067,43.4529463 C231.888359,39.6765441 218.756373,29.6601416 218.756373,29.6601416 C218.756373,29.6601416 216.574424,21.9003824 215.141439,18.9570255 C213.708453,16.0136685 210.158461,12 210.158461,12 L53.467693,12.1400603 Z" id="Crater-base" fill="#CAC9CF"></path>
                        <path d="M52.7575036,12 C52.7575036,12 43.7924296,25.8639899 37.2115273,31.3314642 C30.6306251,36.7989384 13.2720901,44.8048454 13.2720901,44.8048454 C13.2720901,44.8048454 5.07597792,51.9195425 0.637021196,54.8798461 C-3.80193553,57.8401496 15.5229645,77.2581779 41.0083659,81.9493218 C66.4937673,86.6404657 134.703658,85.9664126 134.703658,85.9664126 C134.703658,85.9664126 158.133665,81.5978682 166.891299,72.5376313 C170.334548,68.9754076 165.344145,49.3004821 157.622125,39.8217054 C149.246224,29.5402916 137.927371,29.5533051 137.927371,29.5533051 L52.7575036,12 Z" id="Crater-base-light" fill="#E7E8F0"></path>
                        <path d="M132.5,29 C176.406638,29 212,22.5081289 212,14.5 C212,6.49187113 176.406638,0 132.5,0 C88.5933624,0 53,6.49187113 53,14.5 C53,22.5081289 88.5933624,29 132.5,29 Z" id="Crater-top-fill" fill="#CACACF"></path>
                        <path d="M132.308642,27 C176.075504,27 197,23.9716609 197,19.8295253 C197,15.6873897 176.075504,12.0000001 132.308642,12.0000001 C88.5417801,12.0000001 66,14.1078645 66,18.2500001 C66,22.3921358 88.5417801,27 132.308642,27 Z" id="Crater-top-fill-2" fill="#96969E"></path>
                        <path d="M132.5,29 C176.406638,29 212,22.5081289 212,14.5 C212,6.49187113 176.406638,0 132.5,0 C88.5933624,0 53,6.49187113 53,14.5 C53,22.5081289 88.5933624,29 132.5,29 Z" id="Crater-top" stroke="#E7E8F0" stroke-width="3"></path>
                    </g>
                    <g id="Crater-3" transform="translate(1131.000000, 46.000000)">
                        <path d="M17.484871,6.06245933 C17.484871,6.06245933 14.5092147,12.2333476 12.3249044,14.6669308 C10.1405941,17.100514 4.37900925,20.6639584 4.37900925,20.6639584 L2,28 C2,28 5.12611171,35.1089984 13.5851379,37.1970354 C22.0441641,39.2850725 45.7541572,38.9850502 45.7541572,38.9850502 C45.7541572,38.9850502 68.938738,37.532327 77.6463785,35.031468 C86.354019,32.530609 89,28 89,28 C89,28 85.2860325,21.7103852 81.017078,20.0263139 C76.7481236,18.3422427 72.3862734,13.8754686 72.3862734,13.8754686 C72.3862734,13.8754686 71.6615289,10.4150354 71.1855561,9.10245731 C70.7095834,7.78987922 69.5304369,6 69.5304369,6 L17.484871,6.06245933 Z" id="Crater-base" fill="#CAC9CF"></path>
                        <path d="M17.694738,6 C17.694738,6 14.6913078,12.1825901 12.4866098,14.6207881 C10.2819118,17.058986 4.4665501,20.6291878 4.4665501,20.6291878 L-3.55271368e-15,30 C-3.55271368e-15,30 5.22062578,35.1016199 13.758606,37.1936165 C22.2965862,39.2856131 45.1478918,38.9850218 45.1478918,38.9850218 C45.1478918,38.9850218 52.9972849,37.0368872 55.9312198,32.9965112 C58.3359753,29.684878 55.9312197,24.3886314 55.9312198,22.5000001 C55.93122,18.307134 46.2278827,13.8278252 46.2278827,13.8278252 L17.694738,6 Z" id="Crater-base-light" fill="#E7E8F0"></path>
                        <path d="M43,13 C57.3594035,13 69,10.0898509 69,6.5 C69,2.91014913 57.3594035,0 43,0 C28.6405965,0 17,2.91014913 17,6.5 C17,10.0898509 28.6405965,13 43,13 Z" id="Crater-top" stroke="#E7E8F0" stroke-width="3" fill="#CACACF"></path>
                    </g>
                </g>
                <g id="Smoke-Dark-+-Smoke-Light" transform="translate(941.000000, 105.000000) scale(1, -1) translate(-941.000000, -105.000000) translate(860.000000, 0.000000)" sketch:type="MSShapeGroup">
                    <g id="Smoke-Dark" transform="translate(12.000000, 0.000000)" fill="#97979D">
                        <ellipse id="Oval-1" cx="72.5" cy="24.5" rx="10.5" ry="9.5"></ellipse>
                        <ellipse id="Oval-2" cx="51.5" cy="42.5" rx="10.5" ry="9.5"></ellipse>
                        <ellipse id="Oval-14" cx="78.5" cy="14" rx="5.5" ry="5"></ellipse>
                        <ellipse id="Oval-15" cx="46.5" cy="14" rx="5.5" ry="5"></ellipse>
                        <ellipse id="Oval-16" cx="46.5" cy="23" rx="5.5" ry="5"></ellipse>
                        <ellipse id="Oval-17" cx="78.5" cy="38" rx="5.5" ry="5"></ellipse>
                        <ellipse id="Oval-18" cx="29.5" cy="60" rx="8.5" ry="8"></ellipse>
                        <ellipse id="Oval-19" cx="39.5" cy="47" rx="5.5" ry="5"></ellipse>
                        <ellipse id="Oval-20" cx="36.5" cy="52" rx="5.5" ry="5"></ellipse>
                        <ellipse id="Oval-21" cx="41.5" cy="33.5" rx="10.5" ry="9.5"></ellipse>
                        <ellipse id="Oval-22" cx="82" cy="27" rx="9" ry="8"></ellipse>
                        <ellipse id="Oval-23" cx="88.5" cy="65" rx="5.5" ry="5"></ellipse>
                        <ellipse id="Oval-24" cx="55.5" cy="63.5" rx="19.5" ry="17.5"></ellipse>
                        <ellipse id="Oval-29" cx="5.5" cy="177" rx="5.5" ry="5"></ellipse>
                        <ellipse id="Oval-30" cx="38.5" cy="95" rx="5.5" ry="5"></ellipse>
                        <ellipse id="Oval-31" cx="41.5" cy="100" rx="5.5" ry="5"></ellipse>
                        <ellipse id="Oval-5" cx="20.5" cy="156.5" rx="10.5" ry="9.5"></ellipse>
                        <ellipse id="Oval-6" cx="10.5" cy="165.5" rx="10.5" ry="9.5"></ellipse>
                        <ellipse id="Oval-7" cx="80.5" cy="109.5" rx="10.5" ry="9.5"></ellipse>
                        <ellipse id="Oval-8" cx="91.5" cy="118.5" rx="10.5" ry="9.5"></ellipse>
                        <ellipse id="Oval-9" cx="102.5" cy="128.5" rx="10.5" ry="9.5"></ellipse>
                        <ellipse id="Oval-10" cx="91.5" cy="156.5" rx="10.5" ry="9.5"></ellipse>
                        <ellipse id="Oval-11" cx="112" cy="164" rx="19" ry="17"></ellipse>
                        <ellipse id="Oval-13" cx="131" cy="181" rx="19" ry="17"></ellipse>
                        <path d="M65.5,19 C71.2989899,19 76,14.7467051 76,9.5 C76,4.25329488 71.2989899,0 65.5,0 C59.7010101,0 55,4.25329488 55,9.5 C55,14.7467051 59.7010101,19 65.5,19 Z" id="Oval-12"></path>
                    </g>
                    <g id="Smoke-Light" transform="translate(0.000000, 14.000000)" fill="#E7E8F0">
                        <path d="M85.5,46 C90.1944204,46 94,42.1944204 94,37.5 C94,32.8055796 90.1944204,29 85.5,29 C80.8055796,29 77,32.8055796 77,37.5 C77,42.1944204 80.8055796,46 85.5,46 Z" id="Oval-38"></path>
                        <circle id="Oval-35" cx="57.5" cy="8.5" r="8.5"></circle>
                        <circle id="Oval-36" cx="66.5" cy="18.5" r="8.5"></circle>
                        <circle id="Oval-44" cx="41" cy="66" r="6"></circle>
                        <circle id="Oval-67" cx="78" cy="114" r="6"></circle>
                        <path d="M76.5,104.6 C85.6126984,104.6 93,97.436556 93,88.6 C93,79.763444 85.6126984,72.6 76.5,72.6 C67.3873016,72.6 60,79.763444 60,88.6 C60,97.436556 67.3873016,104.6 76.5,104.6 Z M85,51 C88.3137085,51 91,48.3137085 91,45 C91,41.6862915 88.3137085,39 85,39 C81.6862915,39 79,41.6862915 79,45 C79,48.3137085 81.6862915,51 85,51 Z" id="Oval-45"></path>
                        <circle id="Oval-51" cx="32.5" cy="138.5" r="9.5"></circle>
                        <circle id="Oval-52" cx="39.5" cy="155.5" r="9.5"></circle>
                        <circle id="Oval-53" cx="28.5" cy="171.5" r="9.5"></circle>
                        <circle id="Oval-54" cx="66" cy="167" r="24"></circle>
                        <circle id="Oval-55" cx="19.5" cy="176.5" r="9.5"></circle>
                        <circle id="Oval-56" cx="9.5" cy="186.5" r="9.5"></circle>
                        <circle id="Oval-57" cx="98" cy="177" r="18"></circle>
                        <circle id="Oval-63" cx="80" cy="17" r="6"></circle>
                        <circle id="Oval-65" cx="79" cy="52" r="6"></circle>
                        <circle id="Oval-66" cx="90" cy="52" r="6"></circle>
                        <circle id="Oval-46" cx="59" cy="87" r="6"></circle>
                        <circle id="Oval-47" cx="35" cy="109" r="6"></circle>
                        <circle id="Oval-48" cx="46" cy="106" r="6"></circle>
                        <circle id="Oval-49" cx="104" cy="142" r="6"></circle>
                        <circle id="Oval-50" cx="110" cy="148" r="6"></circle>
                        <circle id="Oval-68" cx="46" cy="149" r="6"></circle>
                        <circle id="Oval-69" cx="42" cy="143" r="6"></circle>
                        <circle id="Oval-70" cx="25" cy="148" r="6"></circle>
                        <circle id="Oval-71" cx="104" cy="148" r="6"></circle>
                        <path d="M65,116 C72.1797017,116 78,110.179702 78,103 C78,95.8202983 72.1797017,90 65,90 C57.8202983,90 52,95.8202983 52,103 C52,110.179702 57.8202983,116 65,116 Z" id="Oval-41"></path>
                        <circle id="Oval-72" cx="59" cy="117" r="6"></circle>
                        <circle id="Oval-64" cx="58" cy="19" r="6"></circle>
                    </g>
                </g>
                <g id="Smoke-Dark-+-Smoke-Light-2" transform="translate(325.000000, 93.000000) scale(-1, -1) translate(-325.000000, -93.000000) translate(273.000000, 21.000000)" sketch:type="MSShapeGroup">
                    <g id="Smoke-Dark" fill="#97979D">
                        <ellipse id="Oval-1" cx="49.5" cy="17.5" rx="7.5" ry="6.5"></ellipse>
                        <ellipse id="Oval-2" cx="35.5" cy="29.5" rx="7.5" ry="6.5"></ellipse>
                        <circle id="Oval-14" cx="54.5" cy="9.5" r="3.5"></circle>
                        <circle id="Oval-15" cx="32.5" cy="9.5" r="3.5"></circle>
                        <circle id="Oval-16" cx="32.5" cy="16.5" r="3.5"></circle>
                        <circle id="Oval-17" cx="54.5" cy="26.5" r="3.5"></circle>
                        <ellipse id="Oval-18" cx="21" cy="41.5" rx="6" ry="5.5"></ellipse>
                        <circle id="Oval-19" cx="27.5" cy="32.5" r="3.5"></circle>
                        <circle id="Oval-20" cx="25.5" cy="36.5" r="3.5"></circle>
                        <ellipse id="Oval-21" cx="28.5" cy="23.5" rx="7.5" ry="6.5"></ellipse>
                        <ellipse id="Oval-22" cx="57" cy="18.5" rx="6" ry="5.5"></ellipse>
                        <circle id="Oval-23" cx="61.5" cy="44.5" r="3.5"></circle>
                        <ellipse id="Oval-24" cx="38.5" cy="44" rx="13.5" ry="12"></ellipse>
                        <circle id="Oval-25" cx="32.5" cy="3.5" r="3.5"></circle>
                        <circle id="Oval-26" cx="32.5" cy="6.5" r="3.5"></circle>
                        <circle id="Oval-27" cx="11.5" cy="98.5" r="3.5"></circle>
                        <circle id="Oval-28" cx="11.5" cy="92.5" r="3.5"></circle>
                        <circle id="Oval-29" cx="3.5" cy="122.5" r="3.5"></circle>
                        <circle id="Oval-30" cx="26.5" cy="65.5" r="3.5"></circle>
                        <ellipse id="Oval-6" cx="7.5" cy="114.5" rx="7.5" ry="6.5"></ellipse>
                        <ellipse id="Oval-7" cx="55.5" cy="75.5" rx="7.5" ry="6.5"></ellipse>
                        <ellipse id="Oval-8" cx="62.5" cy="82.5" rx="7.5" ry="6.5"></ellipse>
                        <ellipse id="Oval-9" cx="70.5" cy="88.5" rx="7.5" ry="6.5"></ellipse>
                        <ellipse id="Oval-10" cx="63.5" cy="108.5" rx="7.5" ry="6.5"></ellipse>
                        <ellipse id="Oval-11" cx="77" cy="113.5" rx="13" ry="11.5"></ellipse>
                        <ellipse id="Oval-13" cx="91" cy="125.5" rx="13" ry="11.5"></ellipse>
                        <path d="M44.5,13 C48.6421356,13 52,10.0898509 52,6.5 C52,2.91014913 48.6421356,0 44.5,0 C40.3578644,0 37,2.91014913 37,6.5 C37,10.0898509 40.3578644,13 44.5,13 Z" id="Oval-12"></path>
                    </g>
                    <g id="Smoke-Light" transform="translate(11.000000, 0.000000)" fill="#E7E8F0">
                        <path d="M59,32 C62.3137085,32 65,29.3137085 65,26 C65,22.6862915 62.3137085,20 59,20 C55.6862915,20 53,22.6862915 53,26 C53,29.3137085 55.6862915,32 59,32 Z" id="Oval-38"></path>
                        <circle id="Oval-35" cx="40" cy="6" r="6"></circle>
                        <circle id="Oval-36" cx="46" cy="12" r="6"></circle>
                        <circle id="Oval-37" cx="46.5" cy="25.5" r="12.5"></circle>
                        <circle id="Oval-39" cx="57.5" cy="45.5" r="10.5"></circle>
                        <path d="M34,62 C37.3137085,62 40,59.3137085 40,56 C40,52.6862915 37.3137085,50 34,50 C30.6862915,50 28,52.6862915 28,56 C28,59.3137085 30.6862915,62 34,62 Z" id="Oval-40"></path>
                        <circle id="Oval-62" cx="40.5" cy="65.5" r="6.5"></circle>
                        <circle id="Oval-42" cx="33" cy="64" r="4"></circle>
                        <circle id="Oval-44" cx="28" cy="46" r="4"></circle>
                        <circle id="Oval-67" cx="54" cy="79" r="4"></circle>
                        <path d="M53,72.4181818 C59.0751322,72.4181818 64,67.2694564 64,60.9181818 C64,54.5669072 59.0751322,49.4181818 53,49.4181818 C46.9248678,49.4181818 42,54.5669072 42,60.9181818 C42,67.2694564 46.9248678,72.4181818 53,72.4181818 Z M57.8518519,34.6363636 C60.0609909,34.6363636 61.8518519,32.8455026 61.8518519,30.6363636 C61.8518519,28.4272246 60.0609909,26.6363636 57.8518519,26.6363636 C55.6427129,26.6363636 53.8518519,28.4272246 53.8518519,30.6363636 C53.8518519,32.8455026 55.6427129,34.6363636 57.8518519,34.6363636 Z" id="Oval-45"></path>
                        <circle id="Oval-51" cx="22.5" cy="95.5" r="6.5"></circle>
                        <circle id="Oval-52" cx="27.5" cy="107.5" r="6.5"></circle>
                        <circle id="Oval-53" cx="19.5" cy="118.5" r="6.5"></circle>
                        <circle id="Oval-54" cx="45.5" cy="115.5" r="16.5"></circle>
                        <circle id="Oval-55" cx="13.5" cy="122.5" r="6.5"></circle>
                        <circle id="Oval-56" cx="6.5" cy="128.5" r="6.5"></circle>
                        <circle id="Oval-57" cx="67.5" cy="121.5" r="12.5"></circle>
                        <circle id="Oval-60" cx="51.5" cy="130.5" r="6.5"></circle>
                        <circle id="Oval-58" cx="34.5" cy="126.5" r="17.5"></circle>
                        <circle id="Oval-59" cx="16.5" cy="130.5" r="6.5"></circle>
                        <circle id="Oval-50" cx="76" cy="102" r="4"></circle>
                        <circle id="Oval-68" cx="32" cy="103" r="4"></circle>
                        <circle id="Oval-69" cx="29" cy="99" r="4"></circle>
                        <circle id="Oval-70" cx="18" cy="102" r="4"></circle>
                        <circle id="Oval-71" cx="72" cy="102" r="4"></circle>
                        <path d="M45,80 C49.9705627,80 54,75.9705627 54,71 C54,66.0294373 49.9705627,62 45,62 C40.0294373,62 36,66.0294373 36,71 C36,75.9705627 40.0294373,80 45,80 Z" id="Oval-41"></path>
                        <circle id="Oval-72" cx="41" cy="81" r="4"></circle>
                        <circle id="Oval-64" cx="40" cy="13" r="4"></circle>
                    </g>
                </g>
            </g>
        </g>
    </g>
</svg>